<?xml version="1.0" encoding="utf-8"?>
<!DOCTYPE svg PUBLIC "-//W3C//DTD SVG 1.1//EN" "http://www.w3.org/Graphics/SVG/1.1/DTD/svg11.dtd">
<svg xmlns="http://www.w3.org/2000/svg" xmlns:xlink="http://www.w3.org/1999/xlink" version="1.1" baseProfile="full" width="24" height="24" viewBox="0 0 24.00 24.00" enable-background="new 0 0 24.00 24.00" xml:space="preserve">
	<path fill="#000000" fill-opacity="1" stroke-width="1.33333" stroke-linejoin="miter" d="M 12.611 21.845 C 12.26 21.782 11.854 21.627 11.536 21.436 C 11.29 21.287 11.011 21.018 8.635 18.63 C 4.708 14.684 4.039 13.991 3.848 13.67 C 3.34 12.816 3.27 11.722 3.664 10.796 C 3.889 10.266 3.957 10.191 6.741 7.38 C 10.952 3.126 11.221 2.862 11.536 2.67 C 12.634 2 14.026 2.068 15.039 2.842 C 15.164 2.938 16.336 4.097 17.643 5.419 C 19.355 7.15 20.062 7.886 20.174 8.055 C 20.379 8.364 20.512 8.664 20.611 9.041 C 20.725 9.473 20.73 10.125 20.623 10.555 C 20.535 10.906 20.291 11.426 20.086 11.699 C 20.004 11.808 18.913 12.927 17.661 14.187 L 15.385 16.478 L 14.308 15.404 C 13.716 14.813 13.235 14.311 13.24 14.289 C 13.245 14.266 14.226 13.261 15.421 12.054 C 16.616 10.848 17.593 9.839 17.593 9.812 C 17.593 9.786 16.597 8.763 15.38 7.54 L 13.167 5.315 L 9.863 8.635 C 8.046 10.46 6.544 11.981 6.525 12.013 C 6.497 12.063 6.882 12.465 9.258 14.86 C 10.779 16.394 12.281 17.905 12.596 18.218 L 13.168 18.788 L 14.274 17.682 L 15.38 16.576 L 16.454 17.649 C 17.045 18.24 17.528 18.74 17.528 18.761 C 17.528 18.822 15.302 21.061 15.046 21.256 C 14.353 21.785 13.465 22 12.611 21.845 Z"/>
</svg>